<?xml version="1.0" encoding="utf-8"?>
<!-- Generator: Adobe Illustrator 19.2.1, SVG Export Plug-In . SVG Version: 6.00 Build 0)  -->
<svg version="1.1" id="Layer_1" xmlns="http://www.w3.org/2000/svg" xmlns:xlink="http://www.w3.org/1999/xlink" x="0px" y="0px"
	 viewBox="0 0 336 119" style="enable-background:new 0 0 336 119;" xml:space="preserve">
<style type="text/css">
	.st0{fill:#E89045;}
	.st1{fill:#E99147;}
	.st2{fill:#FFFFFF;}
</style>
<g>
	<g>
		<path class="st0" d="M305.6,82.2c-2-0.1-3.9-0.1-5.9-0.2c-4.6-0.2-9.1-0.4-13.7-0.5c-3.2-0.1-6.5-0.3-9.7-0.4
			c-3.7-0.1-7.3-0.3-11-0.4c-4.1-0.1-8.2-0.3-12.2-0.4c-4.9-0.1-9.9-0.3-14.8-0.4c-4.2-0.1-8.4-0.2-12.6-0.3
			c-9-0.2-18.1-0.2-27.1-0.3c-7.9-0.1-15.8,0.1-23.7,0.1c-4.6,0-9.1,0.1-13.7,0.2c-4.3,0.1-8.6,0.2-12.9,0.4
			c-4.2,0.1-8.4,0.3-12.5,0.5c-4.8,0.2-9.6,0.5-14.4,0.8c-5.9,0.4-11.7,0.8-17.6,1.3c-6.1,0.5-12.2,1.1-18.3,1.8
			c-7.6,0.9-15.1,1.8-22.6,3S48,90,40.6,91.6c-7.2,1.6-14.3,3.5-21.2,5.9c-4,1.3-7.9,2.8-11.7,4.5c-0.2,0.1-0.4,0.3-0.7,0.1
			c0.5-0.4,1-0.7,1.5-1c6.1-4.1,12.6-7.5,19.2-10.7c1.3-0.6,2.8-0.8,4.2-1.2c7.1-1.8,14.4-3.1,21.6-4.4c5.4-0.9,10.7-1.7,16.1-2.4
			c4.3-0.5,8.6-1,13-1.5c5.5-0.6,11.1-1,16.6-1.5c3.5-0.3,7-0.5,10.6-0.7c5.1-0.3,10.1-0.6,15.2-0.8c3.4-0.1,6.7-0.3,10.1-0.4
			c5.1-0.2,10.2-0.3,15.3-0.4c2.8-0.1,5.5,0,8.3-0.1c5.6-0.1,11.2-0.1,16.8-0.1c6.8,0,13.6,0.1,20.4,0.2c4.4,0.1,8.9,0.2,13.3,0.3
			c3.3,0.1,6.7,0.2,10,0.3c4,0.1,8,0.2,12,0.4c4.5,0.2,9,0.3,13.5,0.5c3.9,0.2,7.7,0.3,11.6,0.5c4.5,0.2,8.9,0.4,13.4,0.6
			c4.8,0.2,9.5,0.5,14.3,0.8c5.3,0.3,10.5,0.6,15.8,0.9c1.9,0.1,3.9,0.2,5.8,0.4C305.6,82.1,305.6,82.1,305.6,82.2z"/>
		<path class="st0" d="M271.2,75.4c-1.5,0-3-0.1-4.5-0.1c-2.6-0.1-5.2-0.2-7.8-0.2c-4.7-0.1-9.4-0.3-14.1-0.4
			c-3.5-0.1-6.9-0.2-10.4-0.3c-5.3-0.1-10.5-0.1-15.8-0.3c-3.3-0.1-6.6-0.1-9.9-0.1c-7.2-0.1-14.3-0.1-21.5-0.1
			c-4.6,0-9.1,0.1-13.7,0.1c-4.4,0.1-8.8,0.1-13.2,0.3c-4.3,0.1-8.5,0.2-12.8,0.4c-4.2,0.1-8.4,0.3-12.5,0.5
			c-4.7,0.2-9.3,0.5-14,0.8c-6.1,0.4-12.2,0.8-18.3,1.3c-4.7,0.4-9.4,0.8-14.1,1.3c-5.5,0.6-10.9,1.2-16.4,2
			c-7.1,1-14.2,2.1-21.3,3.4c-6.9,1.3-13.8,2.8-20.6,4.6c-0.2,0.1-0.5,0.1-0.7,0c1.2-0.5,2.3-1.1,3.5-1.6c4.9-2.1,9.8-4.1,14.8-5.9
			c1.4-0.5,2.8-0.6,4.2-0.8c5.7-1,11.5-1.8,17.2-2.5c4.4-0.5,8.7-1,13.1-1.5c4.9-0.5,9.9-1,14.8-1.3c3.5-0.3,6.9-0.5,10.4-0.7
			c5.2-0.3,10.3-0.6,15.5-0.8c4.1-0.2,8.2-0.3,12.2-0.4c5.3-0.2,10.6-0.3,15.9-0.4c2.6,0,5.1-0.1,7.7-0.1c6.6-0.1,13.2-0.1,19.8-0.1
			c5.5,0,11.1,0.1,16.6,0.2c4.5,0.1,8.9,0.2,13.4,0.3c4.8,0.1,9.7,0.2,14.5,0.4c3.8,0.1,7.6,0.2,11.5,0.4c5.3,0.2,10.7,0.4,16,0.6
			c3.7,0.2,7.5,0.3,11.2,0.5c3.1,0.2,6.2,0.3,9.4,0.5C271.2,75.3,271.2,75.4,271.2,75.4z"/>
		<path class="st0" d="M241.3,69.4c-2.7-0.1-5.3-0.1-8-0.2c-1.8,0-3.6,0-5.4-0.1c-3.3,0-6.5,0-9.8-0.1c-3.6-0.1-7.2-0.1-10.8-0.1
			c-5.6-0.1-11.3-0.1-16.9-0.1c-5.3,0-10.6,0.1-15.9,0.1c-4.6,0.1-9.1,0.1-13.7,0.3c-4.4,0.1-8.8,0.2-13.1,0.4
			c-4.1,0.1-8.1,0.3-12.2,0.5c-6.2,0.3-12.3,0.7-18.5,1c-4,0.2-8.1,0.6-12.1,0.9c-4.8,0.4-9.7,0.8-14.5,1.3c-4.3,0.5-8.7,0.9-13,1.5
			c-5.3,0.6-10.6,1.4-15.9,2.2c-4.2,0.7-8.3,1.4-12.4,2.1c-0.1,0-0.2,0-0.2-0.1c0.5-0.2,0.9-0.4,1.4-0.5C54.6,77,59,75.4,63.6,74
			c1.5-0.4,3-0.5,4.5-0.7c3.9-0.5,7.8-0.9,11.7-1.4c2.8-0.3,5.6-0.6,8.4-0.8c3.9-0.3,7.8-0.7,11.7-1c2.7-0.2,5.3-0.4,8-0.5
			c5.6-0.3,11.2-0.6,16.9-0.9c3.1-0.1,6.1-0.2,9.2-0.3c4.9-0.2,9.9-0.3,14.9-0.4c2.1,0,4.1-0.1,6.2-0.1c8.4-0.2,16.8-0.1,25.1-0.1
			c3.1,0,6.1,0,9.2,0c3,0,5.9,0.1,8.9,0.1c4.2,0.1,8.4,0.2,12.6,0.3c3.2,0.1,6.4,0.2,9.6,0.3c4,0.1,8,0.2,12,0.4c3,0.1,6,0.2,9,0.4
			C241.3,69.3,241.3,69.4,241.3,69.4z"/>
		<path class="st1" d="M69.3,71.3c2.4-0.7,4.9-1.5,7.3-2.2c1.6-0.5,3.1-0.9,4.7-1.4c1.1-0.3,2.3-0.3,3.5-0.4
			c4.9-0.4,9.8-0.9,14.7-1.3c2.5-0.2,5.1-0.4,7.6-0.5c5-0.3,10-0.6,15-0.8c3.7-0.2,7.4-0.3,11.1-0.4c2.8-0.1,5.6-0.2,8.4-0.3
			c4.2-0.1,8.5-0.2,12.7-0.3c11.3-0.2,22.7-0.1,34-0.1c3.7,0,7.4,0.1,11.1,0.1c4.2,0.1,8.4,0.2,12.6,0.3c3,0.1,6.1,0.2,9.1,0.3
			c2.5,0.1,5,0.2,7.5,0.3c-1,0-2.1,0-3.1,0c-3.5,0-6.9-0.1-10.4-0.2c-8.5-0.1-17.1-0.1-25.6-0.1c-3.2,0-6.4,0-9.6,0
			c-3.3,0.1-6.5,0.1-9.8,0.1c-3.9,0.1-7.9,0.2-11.8,0.3c-4.2,0.1-8.4,0.2-12.6,0.4c-3.9,0.1-7.9,0.3-11.8,0.5
			c-5.6,0.3-11.2,0.6-16.8,1c-4.4,0.3-8.8,0.6-13.2,1C98.6,68,93.3,68.5,88,69.1c-4.9,0.5-9.8,1.1-14.6,1.7
			C72,71,70.6,71.2,69.3,71.3C69.3,71.4,69.3,71.3,69.3,71.3z"/>
	</g>
	<path class="st1" d="M241.3,69.4c0-0.1,0-0.1,0-0.2c1.8,0.1,3.6,0.1,5.5,0.2c1,0,2,0,3,0.2C247,69.6,244.2,69.5,241.3,69.4z"/>
	<path class="st1" d="M305.6,82.2c0-0.1,0.1-0.1,0.1-0.2c1.9,0.1,3.8,0.2,5.7,0.3c0.4,0,0.8,0,1.2,0.1
		C310.2,82.4,307.9,82.4,305.6,82.2z"/>
	<path class="st1" d="M271.2,75.4L271.2,75.4c1.8,0,3.7,0.1,5.5,0.2C274.9,75.6,273,75.5,271.2,75.4z"/>
</g>
<g>
	<path class="st2" d="M89.6,65.7c-2.7,5.7-7,8.5-13,8.5c-4.4,0-8-1.2-10.7-3.7s-4.1-6.3-4.1-11.4V34.2h6.5v24.4
		c0,6.6,3.1,9.9,9.2,9.9c3.6,0,6.4-1.4,8.7-4.1c2.2-2.7,3.4-6.2,3.5-10.5V34.2h6.5v39.3h-6.5L89.6,65.7L89.6,65.7z"/>
	<path class="st2" d="M128.6,39.8c-6.2,0-9.4,4.9-9.6,14.6v19.1h-6.5V34.2h6.5v7.5c2-5.5,5.4-8.2,10.4-8.2c1.6,0,3.1,0.2,4.5,0.7
		l-0.3,6.3C132,40.1,130.3,39.8,128.6,39.8z"/>
	<path class="st2" d="M158,33.3c5.5,0,9.9,1.8,13.2,5.3c3.4,3.6,5,8.6,5,15.3c0,6.6-1.7,11.6-5,15.2c-3.4,3.6-7.8,5.3-13.2,5.3
		c-5.5,0-9.9-1.8-13.2-5.3c-3.4-3.6-5-8.6-5-15.2s1.7-11.7,5-15.3C148.1,35.1,152.5,33.3,158,33.3z M169.7,53.9c0-4.7-1-8.3-3-11
		c-2-2.7-4.9-4-8.7-4s-6.7,1.3-8.7,4c-2,2.7-3,6.3-3,11s1,8.3,2.9,11s4.8,4,8.6,4s6.7-1.3,8.8-4C168.7,62.2,169.7,58.6,169.7,53.9z"
		/>
	<path class="st2" d="M215.3,65.7c-2.7,5.7-7,8.5-13,8.5c-4.4,0-8-1.2-10.7-3.7s-4.1-6.3-4.1-11.4V34.2h6.5v24.4
		c0,6.6,3.1,9.9,9.2,9.9c3.6,0,6.4-1.4,8.7-4.1c2.2-2.7,3.4-6.2,3.5-10.5V34.2h6.5v39.3h-6.5L215.3,65.7L215.3,65.7z"/>
	<path class="st2" d="M258.9,72.4c-4.7,2.2-9,2.7-12.9,1.4c-2.8-0.9-4.8-2.7-5.9-5.5c-0.6-1.4-0.9-3-0.9-4.9V39.3h-6.3v-4.9h6.3v-11
		h6.4v10.9h12.3v4.9h-12.3v24c0,4,1.9,6,5.6,6c2,0,4.3-0.5,6.8-1.5L258.9,72.4z"/>
	<path class="st2" d="M282.7,69.2c5.4,0,8.5-2.4,9.3-7.1h6.6c-0.6,3.9-2.3,7-5.2,9.1c-2.9,2.2-6.4,3.2-10.7,3.2
		c-5.2,0-9.5-1.9-12.8-5.6s-4.9-8.7-4.9-15c0-6.2,1.7-11.2,5-14.9s7.7-5.6,13.2-5.6s9.6,2.1,12.3,6.4c2.7,4.3,3.6,9.5,2.8,15.6
		h-26.8c0,4,1,7.4,3,10C276.4,67.9,279.2,69.2,282.7,69.2z M287.5,39.5c-1.3-0.7-2.8-1-4.6-1c-3.3,0-6,1.1-7.9,3.4s-3.1,5.1-3.4,8.5
		h20.9C292.5,44.9,290.8,41.3,287.5,39.5z"/>
</g>
</svg>
